<?xml version="1.0" encoding="UTF-8" standalone="no"?>
<svg
   xmlns:dc="http://purl.org/dc/elements/1.1/"
   xmlns:cc="http://creativecommons.org/ns#"
   xmlns:rdf="http://www.w3.org/1999/02/22-rdf-syntax-ns#"
   xmlns:svg="http://www.w3.org/2000/svg"
   xmlns="http://www.w3.org/2000/svg"
   xmlns:sodipodi="http://sodipodi.sourceforge.net/DTD/sodipodi-0.dtd"
   xmlns:inkscape="http://www.inkscape.org/namespaces/inkscape"
   id="svg5705"
   version="1.1"
   inkscape:version="0.91 r13725"
   sodipodi:docname="animals.svg"
   inkscape:export-filename="/home/tbruyelle/projects/mozaik/assets/textures/animals.png"
   inkscape:export-xdpi="81.129997"
   inkscape:export-ydpi="81.129997">
  <metadata
     id="metadata5845">
    <rdf:RDF>
      <cc:Work
         rdf:about="">
        <dc:format>image/svg+xml</dc:format>
        <dc:type
           rdf:resource="http://purl.org/dc/dcmitype/StillImage" />
        <dc:title></dc:title>
      </cc:Work>
    </rdf:RDF>
  </metadata>
  <sodipodi:namedview
     pagecolor="#ffffff"
     bordercolor="#666666"
     borderopacity="1"
     objecttolerance="10"
     gridtolerance="10"
     guidetolerance="10"
     inkscape:pageopacity="0"
     inkscape:pageshadow="2"
     inkscape:window-width="1920"
     inkscape:window-height="1022"
     id="namedview5843"
     showgrid="false"
     showguides="true"
     inkscape:guide-bbox="true"
     inkscape:zoom="0.834386"
     inkscape:cx="330.20481"
     inkscape:cy="-211.88324"
     inkscape:window-x="0"
     inkscape:window-y="29"
     inkscape:window-maximized="1"
     inkscape:current-layer="svg5705">
    <sodipodi:guide
       position="274.57627,37.288136"
       orientation="1,0"
       id="guide10534" />
    <sodipodi:guide
       position="-232.20339,-55.932203"
       orientation="0,1"
       id="guide10536" />
  </sodipodi:namedview>
  <defs
     id="defs5707" />
  <g
     id="g10517"
     transform="translate(-78,-24.149811)">
    <path
       d="m 905.35,322.05 q 15.65,0 15.65,15.7 l 0,110.65 q 0,15.65 -15.65,15.65 l -110.7,0 Q 779,464.05 779,448.4 l 0,-110.65 q 0,-15.7 15.65,-15.7 l 110.7,0"
       id="path10503"
       inkscape:connector-curvature="0"
       style="fill:#747474;fill-opacity:1;stroke:none" />
    <g
       id="g10451">
      <path
         style="fill:#d2d0d0;stroke:none"
         inkscape:connector-curvature="0"
         id="path5729"
         d="m 807.9,329.05 84.25,0 q -0.05,7.95 2.4,17 3.9,14.6 11.75,23.55 3.95,4.45 7.7,6.2 l 0,72.6 q 0,8.65 -8.65,8.65 l -110.7,0 q -8.65,0 -8.65,-8.65 l 0,-72.6 q 3.8,-1.75 7.7,-6.2 7.85,-8.95 11.75,-23.55 2.45,-9.05 2.45,-17" />
      <path
         style="fill:#bdb6b6;stroke:none"
         inkscape:connector-curvature="0"
         id="path5731"
         d="m 807.9,329.05 q 0,7.95 -2.45,17 -3.9,14.6 -11.75,23.55 -3.9,4.45 -7.7,6.2 l 0,-38.05 q 0,-8.7 8.65,-8.7 l 13.25,0 m 84.25,0 13.2,0 q 8.65,0 8.65,8.7 l 0,38.05 q -3.75,-1.75 -7.7,-6.2 -7.85,-8.95 -11.75,-23.55 -2.45,-9.05 -2.4,-17" />
      <path
         style="fill:#333333;stroke:none"
         inkscape:connector-curvature="0"
         id="path5733"
         d="m 824.75,394.9 0,0.25 0,0.6 q -0.35,3.4 -3.45,5.8 -3.45,2.7 -8.3,2.7 -4.85,0 -8.3,-2.7 -3.1,-2.4 -3.4,-5.8 l -0.05,-0.6 0,-0.25 0,-0.15 q 0.05,-6.6 3.45,-11.25 3.45,-4.75 8.3,-4.75 4.85,0 8.3,4.75 3.4,4.65 3.45,11.25 l 0,0.15 m 74,0 0,0.25 0,0.6 q -0.35,3.4 -3.45,5.8 -3.45,2.7 -8.3,2.7 -4.85,0 -8.3,-2.7 -3.1,-2.4 -3.4,-5.8 l -0.05,-0.6 0,-0.25 0,-0.15 q 0.05,-6.6 3.45,-11.25 3.45,-4.75 8.3,-4.75 4.85,0 8.3,4.75 3.4,4.65 3.45,11.25 l 0,0.15" />
      <path
         style="fill:#ffffff;stroke:none"
         inkscape:connector-curvature="0"
         id="path5735"
         d="m 911.5,444.45 q 0.35,0.75 0.1,1.7 l -0.1,0.1 -0.9,1.25 -3.75,3 -0.1,0 -1.05,0.5 -0.3,0.05 -1.25,-0.2 -0.05,0 q -0.8,-0.35 -1.25,-1 -11.45,-15.1 -29.55,-14.3 l -0.15,0 -1.2,-0.3 -0.15,-0.05 q -0.65,-0.4 -0.95,-1 l -0.1,-0.05 q -0.4,-0.75 -0.35,-1.35 l -0.05,0 q -0.4,-13.75 19.35,-17.1 l 1.7,0.2 q 13.1,5.4 20.1,28.55 m -123,0 q 7,-23.15 20.1,-28.55 l 1.7,-0.2 q 19.75,3.35 19.35,17.1 l -0.05,0 -0.35,1.35 -0.1,0.05 -0.95,1 -0.15,0.05 -1.2,0.3 -0.15,0 q -18.1,-0.8 -29.55,14.3 l -1.25,1 -0.05,0 -1.25,0.2 -0.3,-0.05 q -0.55,-0.15 -1.05,-0.5 l -0.1,0 -3.75,-3 -0.9,-1.25 -0.1,-0.1 q -0.25,-0.95 0.1,-1.7" />
      <path
         style="fill:#bdb6b6;stroke:none"
         inkscape:connector-curvature="0"
         id="path5737"
         d="m 868.45,403.6 q 4.45,5 4.5,10.75 0,1.5 -0.55,3.05 l -12.6,37.25 q -0.35,1 -3.3,1.7 l -6.5,0.6 -6.55,-0.6 q -2.9,-0.7 -3.2,-1.7 L 828.1,418.9 q -1.05,-3.05 -1,-4.55 -0.05,-5.75 4.35,-10.75 6.9,-7.55 18.55,-7.55 11.65,0 18.45,7.55" />
    </g>
  </g>
  <g
     id="g10474"
     transform="translate(-72,42)">
    <path
       d="M 615.35,114 Q 631,114 631,129.7 l 0,110.65 Q 631,256 615.35,256 l -110.7,0 Q 489,256 489,240.35 L 489,129.7 Q 489,114 504.65,114 l 110.7,0"
       id="path5719"
       inkscape:connector-curvature="0"
       style="fill:#7b1e06;stroke:none" />
    <path
       d="m 624,231.8 q -27.85,5.7 -64,5.7 -34.85,0 -61.95,-5.3 l -2.05,-0.4 0,-102.1 q 0,-8.7 8.65,-8.7 l 110.7,0 q 8.65,0 8.65,8.7 l 0,102.1"
       id="path5739"
       inkscape:connector-curvature="0"
       style="fill:#d23007;stroke:none" />
    <path
       d="m 624,231.8 0,8.55 q 0,8.65 -8.65,8.65 l -110.7,0 Q 496,249 496,240.35 l 0,-8.55 2.05,0.4 q 27.1,5.3 61.95,5.3 36.15,0 64,-5.7"
       id="path5741"
       inkscape:connector-curvature="0"
       style="fill:#ffcc00;stroke:none" />
    <path
       d="m 548.3,184.6 -0.1,0.7 q -4.15,15.3 -13.15,24.45 -9,9.15 -17.65,6.75 -8.7,-2.3 -12,-14.7 -3.25,-12.45 0.9,-27.75 l 0.1,-0.65 q 2.45,-8.35 10.05,-12.65 7.75,-4.55 16.45,-2.25 8.65,2.35 13.2,10.15 4.3,7.6 2.2,15.95 m 65.4,-10.55 q 4.15,15.3 0.9,27.75 -3.3,12.4 -12,14.7 -8.65,2.4 -17.65,-6.75 -9,-9.15 -13.15,-24.45 l -0.1,-0.7 q -2.1,-8.35 2.2,-15.95 4.55,-7.8 13.2,-10.15 8.7,-2.3 16.45,2.25 7.6,4.3 10.05,12.65 l 0.1,0.65"
       id="path5743"
       inkscape:connector-curvature="0"
       style="fill:#ffffff;stroke:none" />
    <path
       d="m 540.2,181.4 0,0.2 0,0.5 q -0.3,2.7 -2.75,4.6 -2.75,2.15 -6.6,2.15 -3.85,0 -6.6,-2.15 -2.45,-1.9 -2.7,-4.6 l -0.05,-0.5 0,-0.2 0,-0.1 q 0.05,-5.25 2.75,-8.95 2.75,-3.75 6.6,-3.75 3.85,0 6.6,3.75 2.7,3.7 2.75,8.95 l 0,0.1 m 58.8,0 0,0.2 0,0.5 q -0.25,2.7 -2.75,4.6 -2.75,2.15 -6.6,2.15 -3.85,0 -6.6,-2.15 -2.45,-1.9 -2.7,-4.6 l -0.05,-0.5 0,-0.2 0,-0.1 q 0.05,-5.25 2.75,-8.95 2.75,-3.75 6.6,-3.75 3.85,0 6.6,3.75 2.7,3.7 2.75,8.95 l 0,0.1"
       id="path5745"
       inkscape:connector-curvature="0"
       style="fill:#333333;stroke:none" />
    <path
       d="m 580.9,214.2 q -20.85,5.3 -41.7,0 l -0.15,-1 -0.1,-2.3 0,-11.45 q 0,-2.75 0.65,-5.25 l 0.3,-1 0.05,-0.2 q 1.45,-4.65 5.15,-8.35 6.2,-6.15 14.95,-6.15 8.75,0 14.9,6.15 3.7,3.7 5.2,8.35 l 0.05,0.2 0.25,1 q 0.65,2.5 0.65,5.25 l 0,11.45 -0.1,2.3 -0.1,1"
       id="path5747"
       inkscape:connector-curvature="0"
       style="fill:#5d9cf3;stroke:none" />
    <path
       d="m 580.9,214.2 q -1,6.65 -5.95,11.6 -6.15,6.2 -14.9,6.2 -8.75,0 -14.95,-6.2 -4.95,-4.95 -5.9,-11.6 20.85,5.3 41.7,0"
       id="path5749"
       inkscape:connector-curvature="0"
       style="fill:#397ede;stroke:none" />
    <path
       d="m 573.45,135.7 q 3.9,6.75 4.65,12.65 0.9,5.85 -1.85,7.4 -2.75,1.6 -7.45,-2.05 -4.6,-3.65 -8.5,-10.4 l -0.9,-1.55 q -1.6,-3.2 -1.2,-6.5 0.4,-3.65 3.15,-5.25 2.75,-1.55 6.15,-0.1 3,1.3 5,4.3 l 0.95,1.5"
       id="path5751"
       inkscape:connector-curvature="0"
       style="fill:#bb2905;stroke:none" />
    <path
       d="m 553.75,143.4 q -2.55,4.5 -5.7,6.9 -3.05,2.45 -4.85,1.35 -1.8,-1 -1.25,-4.9 0.55,-3.9 3.1,-8.35 l 0.6,-1.05 q 1.35,-2 3.35,-2.85 2.25,-1 4.05,0.05 1.8,1.1 2.1,3.55 0.25,2.1 -0.8,4.25 l -0.6,1.05"
       id="path5753"
       inkscape:connector-curvature="0"
       style="fill:#bb2905;stroke:none" />
  </g>
  <g
     id="g10466"
     transform="translate(-78,42)">
    <path
       d="M 763.35,114 Q 779,114 779,129.7 l 0,110.65 Q 779,256 763.35,256 l -110.7,0 Q 637,256 637,240.35 L 637,129.7 Q 637,114 652.65,114 l 110.7,0"
       id="path5713"
       inkscape:connector-curvature="0"
       style="fill:#1c3943;stroke:none" />
    <path
       d="m 749.45,249 q -3.25,-10.85 -8.6,-20.2 -13.6,-23.85 -32.85,-23.85 -19.25,0 -32.9,23.85 -5.3,9.35 -8.55,20.2 l -13.9,0 Q 644,249 644,240.35 l 0,-110.65 q 0,-8.7 8.65,-8.7 l 110.7,0 q 8.65,0 8.65,8.7 l 0,110.65 q 0,8.65 -8.65,8.65 l -13.9,0"
       id="path5755"
       inkscape:connector-curvature="0"
       style="fill:#365a66;stroke:none" />
    <path
       d="m 749.45,249 -82.9,0 q 3.25,-10.85 8.55,-20.2 13.65,-23.85 32.9,-23.85 19.25,0 32.85,23.85 5.35,9.35 8.6,20.2"
       id="path5757"
       inkscape:connector-curvature="0"
       style="fill:#e5f3f7;stroke:none" />
    <path
       d="m 755.5,170.7 0.15,0.55 q 3.3,12.3 0.75,22.25 -2.6,10 -9.55,11.85 -6.95,1.85 -14.25,-5.45 -7.25,-7.35 -10.55,-19.65 l -0.15,-0.55 q -1.65,-6.75 1.9,-12.8 3.6,-6.3 10.55,-8.15 6.95,-1.85 13.25,1.75 6,3.55 7.9,10.2 m -61.3,9.05 -0.15,0.55 q -3.3,12.3 -10.5,19.6 -7.25,7.35 -14.25,5.5 -6.95,-1.9 -9.55,-11.85 -2.65,-10 0.65,-22.3 l 0.15,-0.55 q 1.95,-6.65 8,-10.15 6.3,-3.65 13.25,-1.75 7,1.85 10.55,8.1 3.55,6.1 1.85,12.85"
       id="path5759"
       inkscape:connector-curvature="0"
       style="fill:#f2f9fb;stroke:none" />
    <path
       d="m 688.85,178.8 0,0.2 0,0.5 q -0.3,2.6 -2.7,4.45 -2.65,2.05 -6.35,2.05 -3.75,0 -6.4,-2.05 -2.4,-1.85 -2.6,-4.45 l -0.05,-0.5 0,-0.2 0,-0.1 q 0.05,-5.05 2.65,-8.65 2.65,-3.6 6.4,-3.6 3.7,0 6.35,3.6 2.65,3.6 2.7,8.65 l 0,0.1 m 56.9,0 0,0.2 0,0.5 q -0.25,2.6 -2.7,4.45 -2.65,2.05 -6.35,2.05 -3.75,0 -6.4,-2.05 -2.35,-1.85 -2.6,-4.45 l -0.05,-0.5 0,-0.2 0,-0.1 q 0.05,-5.05 2.65,-8.65 2.65,-3.6 6.4,-3.6 3.7,0 6.35,3.6 2.65,3.6 2.7,8.65 l 0,0.1"
       id="path5761"
       inkscape:connector-curvature="0"
       style="fill:#333333;stroke:none" />
    <path
       d="m 724,201.55 q -0.3,3.55 -4.65,6.1 -4.65,2.75 -11.3,2.75 -6.65,0 -11.35,-2.75 -4.3,-2.55 -4.65,-6.1 L 692,200.5 q 0,-6.65 4.7,-11.35 4.7,-4.65 11.35,-4.65 6.65,0 11.3,4.65 4.7,4.7 4.7,11.35 l -0.05,1.05"
       id="path5763"
       inkscape:connector-curvature="0"
       style="fill:#ff9900;stroke:none" />
  </g>
  <g
     id="g10458"
     transform="translate(-114,42)">
    <path
       d="M 941.35,114 Q 957,114 957,129.7 l 0,110.65 Q 957,256 941.35,256 l -110.7,0 Q 815,256 815,240.35 L 815,129.7 Q 815,114 830.65,114 l 110.7,0"
       id="path5711"
       inkscape:connector-curvature="0"
       style="fill:#62391b;stroke:none" />
    <path
       d="m 950,129.7 0,110.65 q 0,8.65 -8.65,8.65 l -110.7,0 Q 822,249 822,240.35 l 0,-110.65 q 0,-8.7 8.65,-8.7 l 110.7,0 q 8.65,0 8.65,8.7"
       id="path5765"
       inkscape:connector-curvature="0"
       style="fill:#a16639;stroke:none" />
    <path
       d="m 930.95,149.95 q 8.4,8.4 8.4,20.25 0,11.85 -8.4,20.3 l -0.05,0 q -2.25,2.2 -4.8,3.9 -0.1,16.6 -11.9,28.4 -11.9,11.85 -28.7,11.85 -16.8,0 -28.7,-11.85 -11.8,-11.8 -11.9,-28.45 -2.5,-1.65 -4.75,-3.85 l -0.05,0 q -8.4,-8.45 -8.4,-20.3 0,-11.85 8.4,-20.25 8.4,-8.4 20.3,-8.4 11.8,0 20.2,8.4 l 3.1,3.6 1.8,-0.05 1.8,0.05 3.1,-3.6 q 8.4,-8.4 20.3,-8.4 11.8,0 20.25,8.4"
       id="path5767"
       inkscape:connector-curvature="0"
       style="fill:#bf8559;stroke:none" />
    <path
       d="m 880.6,194.6 q -1.35,1.25 -3.15,1.25 -1.75,0 -3,-1.2 l -0.1,-0.15 q -2.25,-2.2 -2.9,-4.65 -0.7,-2.55 0.6,-3.8 1.25,-1.25 3.75,-0.6 2.5,0.75 4.7,2.95 l 0.15,0.1 q 1.2,1.2 1.2,3 0,1.8 -1.25,3.1 m 10.95,-6.2 q 2.2,-2.2 4.65,-2.95 2.55,-0.65 3.8,0.6 1.25,1.25 0.6,3.8 -0.7,2.45 -2.95,4.65 l -0.1,0.15 q -1.25,1.2 -3,1.2 -1.8,0 -3.05,-1.25 -1.3,-1.3 -1.3,-3.1 0,-1.8 1.2,-3 l 0.15,-0.1"
       id="path5769"
       inkscape:connector-curvature="0"
       style="fill:#a16639;stroke:none" />
    <path
       d="m 866.2,173.4 0,0.2 0,0.5 q -0.3,2.7 -2.75,4.6 -2.75,2.15 -6.6,2.15 -3.85,0 -6.6,-2.15 -2.45,-1.9 -2.7,-4.6 l -0.05,-0.5 0,-0.2 0,-0.1 q 0.05,-5.25 2.75,-8.95 2.75,-3.75 6.6,-3.75 3.85,0 6.6,3.75 2.7,3.7 2.75,8.95 l 0,0.1 m 58.8,0 0,0.2 0,0.5 q -0.25,2.7 -2.75,4.6 -2.75,2.15 -6.6,2.15 -3.85,0 -6.6,-2.15 -2.45,-1.9 -2.7,-4.6 l -0.05,-0.5 0,-0.2 0,-0.1 q 0.05,-5.25 2.75,-8.95 2.75,-3.75 6.6,-3.75 3.85,0 6.6,3.75 2.7,3.7 2.75,8.95 l 0,0.1"
       id="path5771"
       inkscape:connector-curvature="0"
       style="fill:#333333;stroke:none" />
    <path
       d="m 901.55,200.65 q 3.4,-1.45 6.9,-0.05 3.45,1.4 4.85,4.85 1.45,3.45 0.05,6.95 -1.4,3.4 -4.8,4.9 -20.1,8.65 -44.4,0.2 -3.6,-1.25 -5.2,-4.6 -1.65,-3.4 -0.4,-6.9 1.2,-3.55 4.6,-5.2 3.4,-1.6 6.9,-0.4 17.2,6 31.5,0.25"
       id="path5773"
       inkscape:connector-curvature="0"
       style="fill:#ffffff;stroke:none" />
  </g>
  <g
     id="g10409"
     transform="translate(-44,42)">
    <path
       d="M 445.35,114 Q 461,114 461,129.7 l 0,110.65 Q 461,256 445.35,256 l -110.7,0 Q 319,256 319,240.35 L 319,129.7 Q 319,114 334.65,114 l 110.7,0"
       id="path5721"
       inkscape:connector-curvature="0"
       style="fill:#8c8c8c;stroke:none" />
    <path
       d="m 347.9,121 84.25,0 q -0.05,7.95 2.4,17 3.9,14.6 11.75,23.55 3.95,4.45 7.7,6.2 l 0,72.6 q 0,8.65 -8.65,8.65 l -7.55,0 q -1.6,-9.9 -13.85,-17.15 -14.05,-8.35 -33.95,-8.35 -19.9,0 -33.95,8.35 -12.25,7.25 -13.8,17.15 l -7.6,0 Q 326,249 326,240.35 l 0,-72.6 q 3.8,-1.75 7.7,-6.2 7.85,-8.95 11.75,-23.55 2.45,-9.05 2.45,-17"
       id="path5775"
       inkscape:connector-curvature="0"
       style="fill:#ffffff;stroke:none" />
    <path
       d="m 347.9,121 q 0,7.95 -2.45,17 -3.9,14.6 -11.75,23.55 -3.9,4.45 -7.7,6.2 l 0,-38.05 q 0,-8.7 8.65,-8.7 l 13.25,0 m 84.25,0 13.2,0 q 8.65,0 8.65,8.7 l 0,38.05 q -3.75,-1.75 -7.7,-6.2 -7.85,-8.95 -11.75,-23.55 -2.45,-9.05 -2.4,-17"
       id="path5777"
       inkscape:connector-curvature="0"
       style="fill:#414141;stroke:none" />
    <path
       d="m 437.8,249 -95.55,0 q 1.55,-9.9 13.8,-17.15 14.05,-8.35 33.95,-8.35 19.9,0 33.95,8.35 12.25,7.25 13.85,17.15"
       id="path5779"
       inkscape:connector-curvature="0"
       style="fill:#eeeeee;stroke:none" />
    <path
       d="m 428.5,166.1 q 7.05,4.1 10.4,9.8 3.35,5.7 1.05,9.7 -2.3,4 -8.95,3.95 -6.6,-0.05 -13.65,-4.15 l -0.3,-0.2 q -3.8,-2.25 -4.95,-6.6 -1.2,-4.45 1.05,-8.45 2.35,-4 6.8,-5.2 4.35,-1.15 8.25,0.95 l 0.3,0.2"
       id="path5781"
       inkscape:connector-curvature="0"
       style="fill:#272626;stroke:none" />
    <path
       d="m 362.95,185.2 -0.3,0.2 q -7.05,4.1 -13.65,4.15 -6.65,0.05 -8.95,-3.95 -2.3,-4 1.05,-9.7 3.35,-5.7 10.4,-9.8 l 0.3,-0.2 q 3.9,-2.1 8.25,-0.95 4.45,1.2 6.8,5.2 2.3,4 1.1,8.45 -1.2,4.35 -5,6.6"
       id="path5783"
       inkscape:connector-curvature="0"
       style="fill:#272626;stroke:none" />
    <path
       d="m 390,205.95 q -6.15,0 -10.5,-4.35 -4.3,-4.3 -4.3,-10.45 l 0,-1.05 q 0.35,-2.7 4.3,-4.65 4.35,-2.1 10.5,-2.1 6.1,0 10.45,2.1 3.95,1.95 4.3,4.65 l 0.05,1.05 q 0,6.15 -4.35,10.45 -4.35,4.35 -10.45,4.35"
       id="path5785"
       inkscape:connector-curvature="0"
       style="fill:#272626;stroke:none" />
    <path
       d="m 416.25,208.25 q -1.1,2.05 -2.9,3.9 -4.8,4.75 -11.5,4.75 -6.7,0 -11.45,-4.75 l -0.35,-0.35 -0.35,0.35 q -4.8,4.75 -11.5,4.75 -6.7,0 -11.45,-4.75 -1.8,-1.8 -2.9,-3.8 -0.2,-0.4 -0.05,-0.75 l 0.45,-0.6 5.25,-2.9 0.75,-0.1 0.6,0.5 1.55,2 q 2.4,2.4 5.8,2.4 3.4,0 5.85,-2.4 1.55,-1.6 2.1,-3.6 l 2.35,-8.25 q 0.1,-0.35 0.35,-0.55 l 0.6,-0.2 1,0 0.6,0.2 0.35,0.5 2.45,8.2 0.05,0.05 q 0.55,2.05 2.15,3.65 2.4,2.4 5.8,2.4 3.4,0 5.85,-2.4 l 1.4,-1.9 q 0.2,-0.4 0.6,-0.5 l 0.75,0.05 5.35,2.75 q 0.35,0.15 0.5,0.6 l -0.05,0.75"
       id="path5787"
       inkscape:connector-curvature="0"
       style="fill:#272626;stroke:none" />
  </g>
  <g
     id="g10400"
     transform="translate(2,42)">
    <path
       d="M 131,129.7 Q 131,114 146.65,114 l 110.7,0 Q 273,114 273,129.7 l 0,110.65 Q 273,256 257.35,256 l -110.7,0 Q 131,256 131,240.35 l 0,-110.65"
       id="path5727"
       inkscape:connector-curvature="0"
       style="fill:#9a7b00;stroke:none" />
    <path
       d="m 138,221.55 0,-91.85 q 0,-8.7 8.65,-8.7 l 110.7,0 q 8.65,0 8.65,8.7 l 0,91.8 q -3.2,-2.95 -7,-5.7 -23.6,-17.1 -57,-17.1 -33.35,0 -56.95,17.1 -3.85,2.75 -7.05,5.75"
       id="path5789"
       inkscape:connector-curvature="0"
       style="fill:#ffcc00;stroke:none" />
    <path
       d="m 138,221.55 q 3.2,-3 7.05,-5.75 23.6,-17.1 56.95,-17.1 33.4,0 57,17.1 3.8,2.75 7,5.7 l 0,18.85 q 0,8.65 -8.65,8.65 l -110.7,0 Q 138,249 138,240.35 l 0,-18.8"
       id="path5791"
       inkscape:connector-curvature="0"
       style="fill:#cba200;stroke:none" />
    <path
       d="m 221,211.2 q 1.55,1.55 0.7,4.5 -0.8,2.95 -3.45,5.6 l -0.15,0.15 q -1.5,1.4 -3.55,1.4 -2.15,0 -3.65,-1.5 -1.5,-1.5 -1.5,-3.65 0,-2.1 1.4,-3.55 l 0.15,-0.15 q 2.65,-2.65 5.6,-3.45 2.95,-0.85 4.45,0.65 m -34.1,10.25 -0.15,-0.15 q -2.65,-2.65 -3.45,-5.6 -0.85,-2.95 0.7,-4.5 1.5,-1.5 4.45,-0.65 2.95,0.8 5.6,3.45 l 0.15,0.15 q 1.4,1.45 1.4,3.55 0,2.15 -1.5,3.65 -1.5,1.5 -3.65,1.5 -2.05,0 -3.55,-1.4"
       id="path5793"
       inkscape:connector-curvature="0"
       style="fill:#a38200;stroke:none" />
    <path
       d="m 177.5,183.9 0,0.25 0,0.6 q -0.35,3.4 -3.45,5.8 -3.45,2.7 -8.3,2.7 -4.85,0 -8.3,-2.7 -3.1,-2.4 -3.4,-5.8 l -0.05,-0.6 0,-0.25 0,-0.15 q 0.05,-6.6 3.45,-11.25 3.45,-4.75 8.3,-4.75 4.85,0 8.3,4.75 3.4,4.65 3.45,11.25 l 0,0.15"
       id="path5795"
       inkscape:connector-curvature="0"
       style="fill:#543209;stroke:none" />
    <path
       d="m 251.5,183.9 0,0.25 0,0.6 q -0.35,3.4 -3.45,5.8 -3.45,2.7 -8.3,2.7 -4.85,0 -8.3,-2.7 -3.1,-2.4 -3.4,-5.8 l -0.05,-0.6 0,-0.25 0,-0.15 q 0.05,-6.6 3.45,-11.25 3.45,-4.75 8.3,-4.75 4.85,0 8.3,4.75 3.4,4.65 3.45,11.25 l 0,0.15"
       id="path5797"
       inkscape:connector-curvature="0"
       style="fill:#543209;stroke:none" />
    <path
       d="m 211.9,163.8 -9.75,-7.05 q -0.7,-0.55 -0.95,-1.35 -0.25,-0.8 0,-1.6 l 3.7,-11.45 q 0.25,-0.85 0.95,-1.35 0.65,-0.5 1.55,-0.5 l 12.05,0 q 0.9,0 1.6,0.5 0.65,0.5 0.9,1.35 l 3.7,11.45 q 0.25,0.8 0,1.6 -0.25,0.8 -0.9,1.35 l -9.7,7.05 q -0.7,0.5 -1.6,0.5 -0.85,0 -1.55,-0.5 m -12.65,-15.95 -4.95,6.8 q -0.5,0.65 -1.3,0.9 -0.85,0.25 -1.65,0 l -7.95,-2.6 q -0.85,-0.25 -1.35,-0.9 -0.5,-0.7 -0.5,-1.6 l 0,-8.4 q 0,-0.85 0.5,-1.5 0.5,-0.7 1.35,-1 l 7.95,-2.55 q 0.8,-0.3 1.65,0 0.8,0.25 1.3,0.95 l 4.95,6.8 q 0.45,0.7 0.45,1.55 l -0.45,1.55 m -8.6,23.65 -1.3,-6.1 q -0.2,-0.9 0.15,-1.65 0.35,-0.85 1.1,-1.25 l 5.45,-3.15 q 0.75,-0.4 1.6,-0.3 0.85,0.05 1.5,0.65 l 4.65,4.2 q 0.6,0.55 0.8,1.45 0.15,0.8 -0.2,1.6 l -2.55,5.7 -1.1,1.25 q -0.75,0.45 -1.6,0.35 l -6.2,-0.65 -1.5,-0.65 q -0.6,-0.65 -0.8,-1.45"
       id="path5799"
       inkscape:connector-curvature="0"
       style="fill:#e9bb00;stroke:none" />
  </g>
  <g
     id="g10505"
     transform="translate(-0.4413355,0.60628524)">
    <path
       style="fill:#747474;fill-opacity:1;stroke:none"
       inkscape:connector-curvature="0"
       id="path10501"
       d="m 259.89237,297.47373 q 15.65,0 15.65,15.7 l 0,110.65 q 0,15.65 -15.65,15.65 l -110.7,0 q -15.64999,0 -15.64999,-15.65 l 0,-110.65 q 0,-15.7 15.64999,-15.7 l 110.7,0" />
    <g
       transform="translate(2.5423729,-24.576271)"
       id="g10485">
      <g
         id="g10419">
        <path
           d="m 146.65,329.05 110.7,0 q 8.65,0 8.65,8.7 l 0,110.65 q 0,8.65 -8.65,8.65 l -110.7,0 q -8.65,0 -8.65,-8.65 l 0,-110.65 q 0,-8.7 8.65,-8.7"
           id="path5801"
           inkscape:connector-curvature="0"
           style="fill:#d2d0d0;stroke:none" />
        <path
           d="m 214.3,422.05 q 0,5.5 -3.9,9.35 -3.85,3.9 -9.35,3.9 -5.5,0 -9.4,-3.9 -3.85,-3.85 -3.85,-9.35 0,-5.5 3.85,-9.4 3.9,-3.85 9.4,-3.85 5.5,0 9.35,3.85 3.9,3.9 3.9,9.4"
           id="path5803"
           inkscape:connector-curvature="0"
           style="fill:#b1b1b1;stroke:none" />
        <path
           d="m 187.45,393.15 30.05,0 q 7.35,0.15 12.6,5.4 5.4,5.4 5.4,13 0,7.65 -5.4,13.1 -5.45,5.35 -13.05,5.35 -7.65,0 -13.05,-5.35 l -2,-2.4 -2,2.4 q -5.45,5.35 -13.1,5.35 -7.6,0 -13,-5.35 -5.4,-5.45 -5.4,-13.1 0,-7.6 5.4,-13 5.4,-5.4 13,-5.4 l 0.55,0"
           id="path5805"
           inkscape:connector-curvature="0"
           style="fill:#ffffff;stroke:none" />
        <path
           d="m 213.05,383.85 q 3.95,1.95 4.3,4.65 l 0.05,1.05 q 0,6.15 -4.35,10.45 -4.35,4.35 -10.45,4.35 -6.15,0 -10.5,-4.35 -4.3,-4.3 -4.3,-10.45 l 0,-1.05 q 0.35,-2.7 4.3,-4.65 4.35,-2.1 10.5,-2.1 6.1,0 10.45,2.1"
           id="path5807"
           inkscape:connector-curvature="0"
           style="fill:#ee9fee;stroke:none" />
        <path
           d="m 180.65,381.6 0,0.2 0,0.55 q -0.3,2.95 -3.05,5.05 -3,2.35 -7.25,2.35 -4.25,0 -7.25,-2.35 -2.7,-2.1 -3,-5.05 l 0,-0.55 0,-0.2 0,-0.15 q 0,-5.75 3,-9.85 3,-4.15 7.25,-4.15 4.25,0 7.25,4.15 3,4.1 3.05,9.85 l 0,0.15"
           id="path5809"
           inkscape:connector-curvature="0"
           style="fill:#543209;stroke:none" />
        <path
           d="m 245.4,381.6 0,0.2 0,0.55 q -0.35,2.95 -3.05,5.05 -3,2.35 -7.25,2.35 -4.25,0 -7.25,-2.35 -2.75,-2.1 -3,-5.05 l -0.05,-0.55 0,-0.2 0,-0.15 q 0.05,-5.75 3.05,-9.85 3,-4.15 7.25,-4.15 4.25,0 7.25,4.15 3,4.1 3.05,9.85 l 0,0.15"
           id="path5811"
           inkscape:connector-curvature="0"
           style="fill:#543209;stroke:none" />
        <path
           d="m 224.6,411.8 q 13.3,-0.1 19.75,6.55 l 0.25,0.55 -0.25,0.55 -3.3,3.25 -0.55,0.25 -0.5,-0.25 q -5.1,-4.8 -15.4,-4.7 l -0.55,-0.2 -0.2,-0.6 -0.05,-4.6 q -0.05,-0.35 0.2,-0.55 0.25,-0.25 0.6,-0.25 m 23.25,-9.35 -0.6,4.6 -0.3,0.55 -0.55,0.15 q -10.75,-1.45 -20.8,2.15 l -0.55,-0.05 -0.45,-0.45 -1.55,-4.35 q -0.1,-0.35 0.05,-0.6 l 0.45,-0.4 q 11.4,-4.1 23.65,-2.45 l 0.5,0.3 0.15,0.55 m -68.8,9.35 0.6,0.25 0.2,0.55 -0.05,4.6 -0.25,0.6 -0.55,0.2 q -10.25,-0.1 -15.35,4.7 l -0.55,0.25 -0.5,-0.25 -3.3,-3.25 -0.25,-0.55 q 0,-0.35 0.25,-0.55 6.4,-6.65 19.75,-6.55 m -23.3,-9.35 q 0,-0.3 0.15,-0.55 l 0.55,-0.3 q 12.25,-1.65 23.6,2.45 l 0.5,0.4 0,0.6 -1.55,4.35 -0.4,0.45 -0.6,0.05 q -10,-3.6 -20.75,-2.15 l -0.55,-0.15 -0.3,-0.55 -0.65,-4.6"
           id="path5813"
           inkscape:connector-curvature="0"
           style="fill:#b1b1b1;stroke:none" />
      </g>
    </g>
  </g>
  <g
     id="g10526"
     transform="translate(-6,-24.149811)">
    <path
       d="m 407.35,322.05 q 15.65,0 15.65,15.7 l 0,110.65 q 0,15.65 -15.65,15.65 l -110.7,0 Q 281,464.05 281,448.4 l 0,-110.65 q 0,-15.7 15.65,-15.7 l 110.7,0"
       id="path5725"
       inkscape:connector-curvature="0"
       style="fill:#347e0f;stroke:none" />
    <path
       d="m 288,429.75 0,-92 q 0,-8.7 8.65,-8.7 l 110.7,0 q 8.65,0 8.65,8.7 l 0,92 Q 388.85,417 352,417 q -36.85,0 -64,12.75"
       id="path5815"
       inkscape:connector-curvature="0"
       style="fill:#66cc33;stroke:none" />
    <path
       d="M 288,429.75 Q 315.15,417 352,417 q 36.85,0 64,12.75 l 0,18.65 q 0,8.65 -8.65,8.65 l -110.7,0 q -8.65,0 -8.65,-8.65 l 0,-18.65"
       id="path5817"
       inkscape:connector-curvature="0"
       style="fill:#79db48;stroke:none" />
    <path
       d="m 382.35,351.1 q -0.55,1.3 -1.75,1.95 -28.65,14.55 -59.8,0.1 l -0.05,-0.05 q -1.45,-0.75 -1.9,-2.1 -0.45,-1.3 0,-2.55 0.5,-1.45 2,-2.1 l -0.05,0 q 31.15,-14.5 59.8,0.1 l -0.1,-0.1 q 1.3,0.55 1.9,2.1 0.45,1.2 0,2.55 l -0.05,0.1 m -51,25.2 q -1.25,-0.6 -1.6,-1.7 -0.45,-1.05 -0.05,-2.05 0.35,-1.3 1.7,-1.8 20.1,-9.4 38.6,0.05 l 0.05,0.05 q 1.1,0.5 1.55,1.7 0.35,1 -0.1,2.05 l 0.1,-0.1 q -0.45,1.15 -1.55,1.7 l -0.05,0.05 q -18.55,9.35 -38.7,0.05 l 0.05,0"
       id="path5819"
       inkscape:connector-curvature="0"
       style="fill:#79db48;stroke:none" />
    <path
       d="m 372.6,427 q 1.6,1.6 0.75,4.7 -0.85,3.15 -3.65,5.9 l -0.15,0.15 q -1.55,1.5 -3.75,1.5 -2.25,0 -3.85,-1.6 -1.6,-1.6 -1.6,-3.85 0,-2.2 1.5,-3.75 L 362,429.9 q 2.8,-2.75 5.9,-3.6 3.1,-0.9 4.7,0.7 m -30.55,10.65 q -1.6,1.6 -3.85,1.6 -2.15,0 -3.75,-1.5 l -0.15,-0.15 q -2.75,-2.75 -3.65,-5.9 -0.85,-3.1 0.75,-4.7 1.6,-1.6 4.7,-0.7 3.1,0.85 5.9,3.6 l 0.15,0.15 q 1.5,1.55 1.5,3.75 0,2.25 -1.6,3.85"
       id="path5821"
       inkscape:connector-curvature="0"
       style="fill:#549f2e;stroke:none" />
    <path
       d="m 387.55,390.15 0.2,0 0.55,0 q 2.95,0.3 5.1,3.05 2.35,3 2.35,7.3 0,4.25 -2.35,7.3 -2.15,2.7 -5.1,2.95 l -0.55,0.05 -0.2,0 -0.15,0 -5.05,-0.7 q -2.7,-0.75 -4.85,-2.3 -4.15,-3.05 -4.15,-7.3 0,-4.3 4.15,-7.3 2.15,-1.6 4.85,-2.4 l 5.05,-0.65 0.15,0 m -71.1,20.65 -0.2,0 -0.55,0 q -2.95,-0.3 -5.1,-3 -2.35,-3.05 -2.35,-7.3 0,-4.3 2.35,-7.3 2.15,-2.75 5.1,-3 l 0.55,-0.05 0.2,0 0.15,0 q 2.75,0 5.05,0.7 2.7,0.75 4.85,2.35 4.15,3 4.15,7.3 0,4.25 -4.15,7.3 -2.15,1.55 -4.85,2.35 l -5.05,0.65 -0.15,0"
       id="path5823"
       inkscape:connector-curvature="0"
       style="fill:#333333;stroke:none" />
  </g>
  <g
     id="g10444"
     transform="translate(-58,-24.149811)">
    <path
       d="m 616.8,337.75 q 0,-15.7 15.65,-15.7 l 110.7,0 q 15.65,0 15.65,15.7 l 0,110.65 q 0,15.65 -15.65,15.65 l -110.7,0 q -15.65,0 -15.65,-15.65 l 0,-110.65"
       id="path5717"
       inkscape:connector-curvature="0"
       style="fill:#8e488e;stroke:none" />
    <path
       d="m 751.8,337.75 0,110.65 q 0,8.65 -8.65,8.65 l -110.7,0 q -8.65,0 -8.65,-8.65 l 0,-110.65 q 0,-8.7 8.65,-8.7 l 110.7,0 q 8.65,0 8.65,8.7"
       id="path5825"
       inkscape:connector-curvature="0"
       style="fill:#ee9fee;stroke:none" />
    <path
       d="m 688.8,390 q 9.45,0 16.1,6.65 6.65,6.7 6.65,16.1 0,9.45 -6.65,16.1 -6.65,6.65 -16.1,6.65 -9.4,0 -16.1,-6.65 -6.65,-6.65 -6.65,-16.1 0,-9.4 6.65,-16.1 6.7,-6.65 16.1,-6.65"
       id="path5827"
       inkscape:connector-curvature="0"
       style="fill:#cd76cd;stroke:none" />
    <path
       d="m 694.35,412.45 q 2.2,-2.2 4.65,-2.95 2.55,-0.65 3.8,0.6 1.25,1.25 0.6,3.8 -0.7,2.45 -2.95,4.65 l -0.1,0.15 q -1.25,1.2 -3,1.2 -1.8,0 -3.05,-1.25 -1.3,-1.3 -1.3,-3.1 0,-1.8 1.2,-3 l 0.15,-0.1 m -11.05,0 0.15,0.1 q 1.2,1.2 1.2,3 0,1.8 -1.25,3.1 -1.35,1.25 -3.15,1.25 -1.75,0 -3,-1.2 l -0.1,-0.15 q -2.25,-2.2 -2.9,-4.65 -0.7,-2.55 0.6,-3.8 1.25,-1.25 3.75,-0.6 2.5,0.75 4.7,2.95"
       id="path5829"
       inkscape:connector-curvature="0"
       style="fill:#ee9fee;stroke:none" />
    <path
       d="m 663.5,395.9 0,0.25 0,0.6 q -0.35,3.4 -3.45,5.8 -3.45,2.7 -8.3,2.7 -4.85,0 -8.3,-2.7 -3.1,-2.4 -3.4,-5.8 l -0.05,-0.6 0,-0.25 0,-0.15 q 0.05,-6.6 3.45,-11.25 3.45,-4.75 8.3,-4.75 4.85,0 8.3,4.75 3.4,4.65 3.45,11.25 l 0,0.15 m 74,0 0,0.25 0,0.6 q -0.35,3.4 -3.45,5.8 -3.45,2.7 -8.3,2.7 -4.85,0 -8.3,-2.7 -3.1,-2.4 -3.4,-5.8 l -0.05,-0.6 0,-0.25 0,-0.15 q 0.05,-6.6 3.45,-11.25 3.45,-4.75 8.3,-4.75 4.85,0 8.3,4.75 3.4,4.65 3.45,11.25 l 0,0.15"
       id="path5831"
       inkscape:connector-curvature="0"
       style="fill:#333333;stroke:none" />
  </g>
  <g
     id="g10436"
     transform="translate(-32,-24.149811)">
    <path
       d="m 575.25,322.15 q 15.65,0 15.65,15.7 l 0,110.65 q 0,15.65 -15.65,15.65 l -110.7,0 q -15.65,0 -15.65,-15.65 l 0,-110.65 q 0,-15.7 15.65,-15.7 l 110.7,0"
       id="path5723"
       inkscape:connector-curvature="0"
       style="fill:#28538e;stroke:none" />
    <path
       d="m 455.9,419.7 0,-81.85 q 0,-8.7 8.65,-8.7 l 110.7,0 q 8.65,0 8.65,8.7 l 0,81.8 q -3.2,-2.95 -7,-5.7 -23.6,-17.1 -57,-17.1 -33.35,0 -56.95,17.1 -3.85,2.75 -7.05,5.75"
       id="path5833"
       inkscape:connector-curvature="0"
       style="fill:#528cdb;stroke:none" />
    <path
       d="m 455.9,419.7 q 3.2,-3 7.05,-5.75 23.6,-17.1 56.95,-17.1 33.4,0 57,17.1 3.8,2.75 7,5.7 l 0,28.85 q 0,8.65 -8.65,8.65 l -110.7,0 q -8.65,0 -8.65,-8.65 l 0,-28.8"
       id="path5835"
       inkscape:connector-curvature="0"
       style="fill:#4178c2;stroke:none" />
    <path
       d="m 536.65,420.1 q 1.6,1.6 0.7,4.7 -0.85,3.1 -3.6,5.85 l -0.15,0.15 q -1.55,1.5 -3.7,1.5 -2.25,0 -3.85,-1.6 -1.55,-1.6 -1.55,-3.8 0,-2.2 1.5,-3.75 l 0.15,-0.15 q 2.75,-2.75 5.85,-3.6 3.05,-0.85 4.65,0.7 m -22.85,10.6 q -1.6,1.6 -3.85,1.6 -2.15,0 -3.75,-1.5 l -0.1,-0.15 q -2.8,-2.75 -3.65,-5.85 -0.85,-3.1 0.75,-4.7 1.55,-1.55 4.65,-0.7 3.1,0.85 5.85,3.6 l 0.15,0.15 q 1.5,1.55 1.5,3.75 0,2.2 -1.55,3.8"
       id="path5837"
       inkscape:connector-curvature="0"
       style="fill:#3164a8;stroke:none" />
    <path
       d="m 493.5,383.9 0,0.25 0,0.6 q -0.35,3.4 -3.45,5.8 -3.45,2.7 -8.3,2.7 -4.85,0 -8.3,-2.7 -3.1,-2.4 -3.4,-5.8 l -0.05,-0.6 0,-0.25 0,-0.15 q 0.05,-6.6 3.45,-11.25 3.45,-4.75 8.3,-4.75 4.85,0 8.3,4.75 3.4,4.65 3.45,11.25 l 0,0.15 m 74,0 0,0.25 0,0.6 q -0.35,3.4 -3.45,5.8 -3.45,2.7 -8.3,2.7 -4.85,0 -8.3,-2.7 -3.1,-2.4 -3.4,-5.8 l -0.05,-0.6 0,-0.25 0,-0.15 q 0.05,-6.6 3.45,-11.25 3.45,-4.75 8.3,-4.75 4.85,0 8.3,4.75 3.4,4.65 3.45,11.25 l 0,0.15"
       id="path5839"
       inkscape:connector-curvature="0"
       style="fill:#333333;stroke:none" />
    <path
       d="m 467.2,457.15 0,-14 q 0,-4 4,-4 l 23,0 q 4,0 4,4 l 0,14 -31,0 m 74.7,0 0,-14 q 0,-4 4,-4 l 23,0 q 4,0 4,4 l 0,14 -31,0"
       id="path5841"
       inkscape:connector-curvature="0"
       style="fill:#ffffff;stroke:none" />
  </g>
</svg>
